<svg version="1.1" id="Layer_1" xmlns="http://www.w3.org/2000/svg" xmlns:xlink="http://www.w3.org/1999/xlink" x="0px" y="0px"
	 width="100%" viewBox="0 0 512 512" enable-background="new 0 0 512 512" xml:space="preserve">
<path fill="#000000" opacity="1.000000" stroke="none" 
	d="
M332.000000,513.000000 
	C260.312439,513.000000 188.624878,513.000000 116.366058,512.643433 
	C109.275826,510.393555 105.131065,504.395447 104.987503,496.937164 
	C104.360321,464.356232 107.236992,431.628357 101.836922,399.254608 
	C100.079025,388.715942 96.867027,378.344116 93.497719,368.168274 
	C88.871117,354.195221 77.679604,344.563416 68.807877,333.482178 
	C57.156097,318.928528 46.997929,303.452850 38.520691,286.920349 
	C25.612030,261.745453 17.165113,235.085495 15.149763,206.790878 
	C13.932237,189.697342 14.504399,172.432480 18.288450,155.650040 
	C22.240726,138.121521 28.141121,121.194603 36.901558,105.312279 
	C46.940319,87.112411 59.042587,70.772537 74.541145,56.699173 
	C90.531677,42.179062 108.141701,30.577118 127.724350,21.605070 
	C146.268356,13.108895 165.621277,7.563465 185.620773,3.995816 
	C191.084793,3.021109 196.540482,1.999879 202.000000,0.999999 
	C217.687561,1.000000 233.375122,1.000000 249.688293,1.401334 
	C262.504028,3.665334 274.885315,4.724862 286.841248,7.571103 
	C306.851196,12.334682 325.915009,19.846056 343.975433,29.919516 
	C358.343018,37.933235 371.718567,47.328251 383.700073,58.455173 
	C392.742218,66.852386 400.963043,76.204124 408.992340,85.606712 
	C424.311768,103.546242 435.313354,124.062263 443.567841,146.092178 
	C449.363770,161.560715 454.008789,177.559586 454.636719,193.942368 
	C455.230499,209.432907 453.312103,225.094788 451.539368,240.571442 
	C450.552856,249.184341 451.586670,257.113739 455.324615,264.606384 
	C462.056824,278.100891 471.788330,289.473114 481.968384,300.460815 
	C486.455658,305.304047 491.002686,310.092194 495.463654,314.959381 
	C502.640167,322.789398 499.325134,338.197662 487.883118,341.036285 
	C477.960236,343.497986 468.051147,346.015350 457.000000,348.793732 
	C457.000000,373.039124 457.102509,397.441803 456.943726,421.842743 
	C456.889069,430.241943 453.266693,437.639954 446.718567,442.516998 
	C433.363892,452.463531 417.679749,451.543091 402.077911,450.627747 
	C392.496429,450.065643 382.708618,449.002533 373.311279,450.308136 
	C360.742157,452.054443 351.046082,459.424866 346.866425,471.848389 
	C344.630829,478.493439 343.251343,485.754181 343.241394,492.739563 
	C343.228180,502.006592 340.112152,508.659973 332.000000,513.000000 
M267.963196,55.018425 
	C261.251251,56.022495 254.454681,56.662617 247.865417,58.194389 
	C244.869614,58.890808 243.013702,59.005558 240.351807,57.022923 
	C227.675201,47.581154 210.053253,47.549004 197.071793,57.297340 
	C195.406998,58.547508 192.627792,59.673203 190.833847,59.173340 
	C178.254745,55.668381 164.902969,58.030193 158.919830,71.711487 
	C158.479233,72.718964 156.158813,73.961418 155.392487,73.610275 
	C144.510223,68.623802 133.599213,69.480629 123.136581,74.128906 
	C109.358055,80.250359 99.006454,89.546684 97.966301,106.012276 
	C97.685524,110.457001 96.135338,113.937637 91.488304,116.064903 
	C81.272766,120.741234 74.698212,136.092026 80.062508,147.456955 
	C81.771973,151.078674 81.193497,154.235260 79.035118,157.504074 
	C75.864532,162.305832 72.759239,167.176056 70.012154,172.227051 
	C63.151924,184.840775 61.757458,198.265671 63.909416,212.384521 
	C65.692894,224.085831 70.644096,233.677094 80.678589,240.048431 
	C84.699150,242.601273 85.414574,245.728210 85.042633,249.887497 
	C84.807945,252.511841 84.539848,255.272919 85.081581,257.802429 
	C87.260017,267.974213 92.116493,275.922607 102.790291,279.450989 
	C109.704201,281.736511 116.207108,280.280640 122.718155,278.568298 
	C125.195419,277.916809 126.333382,277.983856 127.018661,280.521393 
	C129.891342,291.158356 138.590378,295.089478 147.846985,297.932037 
	C161.390152,302.090942 175.506577,302.244415 189.504028,302.908081 
	C192.080765,303.030304 193.482224,303.796936 193.963577,306.168182 
	C195.023132,311.387848 196.165604,316.599365 196.966644,321.861053 
	C198.841324,334.174835 198.767899,334.080933 210.345016,334.072510 
	C213.309647,334.070343 214.488525,333.271332 215.453384,330.286102 
	C220.083023,315.962189 224.835083,301.662811 230.146255,287.582031 
	C232.092270,282.422821 234.836533,276.983795 238.736893,273.268280 
	C245.990204,266.358734 255.786240,264.104492 265.397064,261.986420 
	C275.497955,259.760315 285.514465,257.132660 293.446381,249.985611 
	C300.480865,243.647171 307.059662,236.802551 314.101349,230.472549 
	C322.562164,222.866882 331.801422,216.647614 343.177002,213.832520 
	C349.488861,212.270569 355.664673,209.767532 361.542419,206.941223 
	C369.010071,203.350388 373.732666,194.842453 371.674133,188.622650 
	C370.472687,184.992584 371.817566,184.579208 374.588562,183.707031 
	C389.100220,179.139450 392.564056,168.683487 391.682190,156.078445 
	C390.611725,140.777603 383.964600,127.557671 370.876434,118.177261 
	C367.384247,115.674408 360.743500,114.353355 363.915405,107.209099 
	C364.132629,106.719742 363.371307,105.767052 363.013672,105.055687 
	C358.304047,95.687996 350.502106,91.590584 340.320160,91.895157 
	C331.759491,74.102806 313.767883,67.369080 295.669617,70.681053 
	C291.768463,71.394951 288.259491,71.781448 285.635742,67.312973 
	C281.911957,60.971024 275.871948,57.257492 267.963196,55.018425 
z"/>
<path fill="#FFFFFF" opacity="1.000000" stroke="none" 
	d="
M332.468658,513.000000 
	C340.112152,508.659973 343.228180,502.006592 343.241394,492.739563 
	C343.251343,485.754181 344.630829,478.493439 346.866425,471.848389 
	C351.046082,459.424866 360.742157,452.054443 373.311279,450.308136 
	C382.708618,449.002533 392.496429,450.065643 402.077911,450.627747 
	C417.679749,451.543091 433.363892,452.463531 446.718567,442.516998 
	C453.266693,437.639954 456.889069,430.241943 456.943726,421.842743 
	C457.102509,397.441803 457.000000,373.039124 457.000000,348.793732 
	C468.051147,346.015350 477.960236,343.497986 487.883118,341.036285 
	C499.325134,338.197662 502.640167,322.789398 495.463654,314.959381 
	C491.002686,310.092194 486.455658,305.304047 481.968384,300.460815 
	C471.788330,289.473114 462.056824,278.100891 455.324615,264.606384 
	C451.586670,257.113739 450.552856,249.184341 451.539368,240.571442 
	C453.312103,225.094788 455.230499,209.432907 454.636719,193.942368 
	C454.008789,177.559586 449.363770,161.560715 443.567841,146.092178 
	C435.313354,124.062263 424.311768,103.546242 408.992340,85.606712 
	C400.963043,76.204124 392.742218,66.852386 383.700073,58.455173 
	C371.718567,47.328251 358.343018,37.933235 343.975433,29.919516 
	C325.915009,19.846056 306.851196,12.334682 286.841248,7.571103 
	C274.885315,4.724862 262.504028,3.665334 250.156952,1.401334 
	C337.626526,1.000000 425.253052,1.000000 512.939819,1.000000 
	C512.939819,171.548386 512.939819,342.096802 512.939819,513.000000 
	C452.979584,513.000000 392.958435,513.000000 332.468658,513.000000 
z"/>
<path fill="#FFFFFF" opacity="1.000000" stroke="none" 
	d="
M201.531342,0.999999 
	C196.540482,1.999879 191.084793,3.021109 185.620773,3.995816 
	C165.621277,7.563465 146.268356,13.108895 127.724350,21.605070 
	C108.141701,30.577118 90.531677,42.179062 74.541145,56.699173 
	C59.042587,70.772537 46.940319,87.112411 36.901558,105.312279 
	C28.141121,121.194603 22.240726,138.121521 18.288450,155.650040 
	C14.504399,172.432480 13.932237,189.697342 15.149763,206.790878 
	C17.165113,235.085495 25.612030,261.745453 38.520691,286.920349 
	C46.997929,303.452850 57.156097,318.928528 68.807877,333.482178 
	C77.679604,344.563416 88.871117,354.195221 93.497719,368.168274 
	C96.867027,378.344116 100.079025,388.715942 101.836922,399.254608 
	C107.236992,431.628357 104.360321,464.356232 104.987503,496.937164 
	C105.131065,504.395447 109.275826,510.393555 115.897400,512.643433 
	C77.686928,513.000000 39.373856,513.000000 1.030393,513.000000 
	C1.030393,342.443817 1.030393,171.887619 1.030393,1.000000 
	C67.687195,1.000000 134.374939,1.000000 201.531342,0.999999 
z"/>
<path fill="#FFFFFF" opacity="1.000000" stroke="none" 
	d="
M268.383545,55.148117 
	C275.871948,57.257492 281.911957,60.971024 285.635742,67.312973 
	C288.259491,71.781448 291.768463,71.394951 295.669617,70.681053 
	C313.767883,67.369080 331.759491,74.102806 340.320160,91.895157 
	C350.502106,91.590584 358.304047,95.687996 363.013672,105.055687 
	C363.371307,105.767052 364.132629,106.719742 363.915405,107.209099 
	C360.743500,114.353355 367.384247,115.674408 370.876434,118.177261 
	C383.964600,127.557671 390.611725,140.777603 391.682190,156.078445 
	C392.564056,168.683487 389.100220,179.139450 374.588562,183.707031 
	C371.817566,184.579208 370.472687,184.992584 371.674133,188.622650 
	C373.732666,194.842453 369.010071,203.350388 361.542419,206.941223 
	C355.664673,209.767532 349.488861,212.270569 343.177002,213.832520 
	C331.801422,216.647614 322.562164,222.866882 314.101349,230.472549 
	C307.059662,236.802551 300.480865,243.647171 293.446381,249.985611 
	C285.514465,257.132660 275.497955,259.760315 265.397064,261.986420 
	C255.786240,264.104492 245.990204,266.358734 238.736893,273.268280 
	C234.836533,276.983795 232.092270,282.422821 230.146255,287.582031 
	C224.835083,301.662811 220.083023,315.962189 215.453384,330.286102 
	C214.488525,333.271332 213.309647,334.070343 210.345016,334.072510 
	C198.767899,334.080933 198.841324,334.174835 196.966644,321.861053 
	C196.165604,316.599365 195.023132,311.387848 193.963577,306.168182 
	C193.482224,303.796936 192.080765,303.030304 189.504028,302.908081 
	C175.506577,302.244415 161.390152,302.090942 147.846985,297.932037 
	C138.590378,295.089478 129.891342,291.158356 127.018661,280.521393 
	C126.333382,277.983856 125.195419,277.916809 122.718155,278.568298 
	C116.207108,280.280640 109.704201,281.736511 102.790291,279.450989 
	C92.116493,275.922607 87.260017,267.974213 85.081581,257.802429 
	C84.539848,255.272919 84.807945,252.511841 85.042633,249.887497 
	C85.414574,245.728210 84.699150,242.601273 80.678589,240.048431 
	C70.644096,233.677094 65.692894,224.085831 63.909416,212.384521 
	C61.757458,198.265671 63.151924,184.840775 70.012154,172.227051 
	C72.759239,167.176056 75.864532,162.305832 79.035118,157.504074 
	C81.193497,154.235260 81.771973,151.078674 80.062508,147.456955 
	C74.698212,136.092026 81.272766,120.741234 91.488304,116.064903 
	C96.135338,113.937637 97.685524,110.457001 97.966301,106.012276 
	C99.006454,89.546684 109.358055,80.250359 123.136581,74.128906 
	C133.599213,69.480629 144.510223,68.623802 155.392487,73.610275 
	C156.158813,73.961418 158.479233,72.718964 158.919830,71.711487 
	C164.902969,58.030193 178.254745,55.668381 190.833847,59.173340 
	C192.627792,59.673203 195.406998,58.547508 197.071793,57.297340 
	C210.053253,47.549004 227.675201,47.581154 240.351807,57.022923 
	C243.013702,59.005558 244.869614,58.890808 247.865417,58.194389 
	C254.454681,56.662617 261.251251,56.022495 268.383545,55.148117 
z"/>
</svg>