<?xml version="1.0" standalone="no"?>
<!DOCTYPE svg PUBLIC "-//W3C//DTD SVG 20010904//EN"
 "http://www.w3.org/TR/2001/REC-SVG-20010904/DTD/svg10.dtd">
<svg version="1.0" xmlns="http://www.w3.org/2000/svg"
 width="512.000000pt" height="512.000000pt" viewBox="0 0 512.000000 512.000000"
 preserveAspectRatio="xMidYMid meet">
<metadata>
Created by potrace 1.16, written by Peter Selinger 2001-2019
</metadata>
<g transform="translate(0.000000,512.000000) scale(0.100000,-0.100000)"
fill="#000000" stroke="none">
<path d="M2261 4585 c1 -16 -1 -37 -4 -45 -3 -8 -18 -80 -32 -160 -50 -270
-168 -826 -179 -837 -4 -4 -251 301 -310 382 -43 58 -96 117 -96 105 0 -18 78
-472 95 -549 8 -41 14 -75 12 -77 -1 -2 -59 30 -127 71 -69 41 -129 74 -133
75 -4 0 17 -33 47 -72 30 -40 54 -74 53 -75 -2 -1 -45 9 -97 22 -89 22 -631
160 -675 172 -11 3 59 -75 156 -174 194 -196 411 -425 407 -429 -2 -1 -68 13
-148 31 -80 19 -146 33 -147 31 -1 -1 59 -41 135 -89 l136 -88 -269 7 c-149 4
-268 4 -265 1 3 -3 68 -30 145 -60 77 -31 164 -66 193 -79 l53 -24 -73 -28
c-40 -16 -164 -64 -275 -107 -111 -44 -206 -79 -212 -79 -6 0 -11 -3 -11 -7 0
-5 58 -26 128 -47 70 -22 204 -65 297 -97 164 -55 169 -57 140 -69 -20 -8 -63
-10 -130 -7 l-100 6 95 -24 c52 -13 113 -26 134 -30 l39 -6 -47 -34 c-26 -18
-57 -40 -69 -49 -12 -9 10 -3 48 13 39 16 81 32 95 35 l25 7 -22 -19 c-12 -11
-75 -41 -140 -67 -115 -45 -416 -186 -410 -191 1 -1 105 22 231 52 126 29 231
52 234 50 2 -3 -28 -48 -68 -101 -39 -53 -144 -206 -232 -338 -88 -133 -167
-250 -176 -260 -15 -17 -14 -17 24 -1 143 59 541 238 709 317 110 53 201 94
203 92 2 -2 -26 -78 -63 -170 -36 -92 -64 -169 -63 -171 2 -1 45 34 96 78 51
44 95 79 97 76 5 -4 -49 -509 -62 -578 l-6 -35 59 55 c32 30 71 68 86 85 l26
30 -18 -90 c-10 -49 -17 -91 -16 -92 2 -2 59 61 127 139 68 79 168 188 221
243 l97 100 1 -45 c0 -43 0 -44 16 -22 8 12 21 22 28 22 12 0 114 -301 175
-520 16 -58 49 -175 73 -260 32 -116 44 -147 46 -122 4 40 -68 324 -145 574
-74 240 -121 409 -135 484 l-11 60 88 265 c100 299 113 338 151 464 21 70 28
86 35 70 5 -13 8 8 10 60 1 44 4 69 6 55 20 -118 91 -360 175 -594 55 -154
101 -290 101 -301 1 -11 -43 -151 -96 -312 -136 -409 -156 -497 -166 -708 -4
-93 -5 -176 -2 -184 4 -13 175 493 242 717 18 61 36 112 39 112 3 0 27 -65 54
-145 27 -80 53 -148 58 -152 6 -3 8 3 5 13 -12 40 -28 273 -25 349 l3 80 33
-85 c29 -75 76 -170 56 -115 -30 89 -53 167 -58 205 -4 29 8 4 34 -75 22 -66
42 -134 43 -151 1 -18 5 -30 10 -27 4 2 8 -3 8 -11 2 -25 4 -29 21 -61 10 -16
17 -24 18 -17 0 19 -29 261 -36 295 -5 26 16 14 250 -142 141 -94 256 -167
256 -163 0 10 -76 341 -90 390 -8 30 -7 33 8 27 9 -4 87 -33 172 -65 85 -32
220 -84 299 -114 79 -31 145 -55 147 -54 1 2 -26 50 -61 108 -103 172 -363
624 -370 641 -5 13 5 19 52 31 58 14 59 14 241 -32 100 -26 182 -46 182 -45 0
1 -19 15 -42 30 -24 16 -69 48 -101 71 l-59 42 69 21 c37 12 185 53 328 93
l259 73 -82 14 c-45 8 -82 17 -82 21 0 3 32 14 70 24 39 10 69 21 67 23 -8 8
-202 -28 -337 -62 -74 -18 -252 -68 -395 -110 -143 -42 -291 -83 -330 -91 -38
-9 -73 -19 -77 -23 -9 -8 7 -28 186 -236 105 -122 316 -414 316 -438 0 -3 -44
15 -97 40 -179 83 -508 211 -518 202 -5 -6 52 -194 109 -356 20 -56 36 -105
36 -108 0 -7 -56 36 -140 106 -30 25 -138 111 -240 191 -102 80 -193 155 -203
166 -10 11 -58 145 -106 298 -74 233 -150 458 -186 549 -4 11 8 0 27 -25 37
-48 79 -120 203 -350 67 -123 354 -594 372 -610 4 -3 -13 30 -36 74 -24 43
-97 183 -163 310 -122 234 -174 332 -212 396 -17 30 -9 25 59 -36 211 -188
410 -340 665 -510 178 -119 209 -138 170 -104 -27 24 -378 305 -704 565 -196
155 -357 300 -399 359 -22 31 -14 29 38 -9 105 -76 450 -282 585 -350 73 -36
57 -22 -68 60 -57 37 -102 68 -100 70 2 2 41 -10 88 -25 89 -30 248 -65 256
-57 7 7 -272 128 -476 207 -96 38 -191 76 -210 85 -40 18 -50 20 111 -16 110
-24 245 -44 434 -64 83 -9 278 -36 435 -60 351 -53 386 -58 380 -52 -8 8 -206
43 -375 67 -82 12 -233 37 -335 56 -346 66 -562 104 -654 116 l-91 11 100 17
c68 12 151 37 260 79 172 67 388 161 382 168 -8 8 -400 -112 -652 -200 -76
-26 -121 -38 -109 -29 204 166 581 500 754 667 70 68 79 73 130 79 104 13 605
96 723 119 64 14 117 23 117 22 0 -1 -37 -35 -82 -75 -46 -40 -150 -136 -232
-214 -82 -77 -153 -141 -157 -141 -13 0 -196 -155 -287 -243 l-87 -84 75 64
c332 284 321 277 125 85 l-180 -176 -95 -32 c-52 -17 -113 -41 -135 -52 -24
-12 -72 -23 -120 -27 l-80 -7 105 -2 c69 -1 141 6 210 19 58 11 126 20 152 20
28 0 127 -23 240 -56 678 -196 823 -236 807 -219 -3 2 -155 56 -339 118 -184
63 -350 121 -369 128 l-33 14 108 61 c60 34 140 78 177 98 38 21 66 40 64 42
-3 3 -67 0 -143 -5 -77 -6 -170 -11 -208 -11 l-69 0 24 26 c26 29 401 380 514
482 61 55 66 62 40 56 -27 -6 -21 3 59 90 69 75 84 96 65 92 -60 -13 -598
-107 -719 -126 -74 -11 -162 -25 -194 -30 -33 -5 -60 -9 -61 -7 -1 1 20 83 46
182 27 99 66 259 87 357 l39 177 -61 -52 c-71 -62 -272 -258 -236 -231 14 11
79 70 146 132 l122 112 -82 -189 c-44 -104 -84 -187 -87 -185 -7 4 -112 -226
-106 -232 2 -2 25 46 52 106 26 61 50 109 52 107 2 -2 -24 -68 -57 -146 -33
-77 -60 -149 -61 -159 -1 -11 -4 -9 -9 8 -5 15 -8 18 -9 9 -1 -9 -106 -113
-233 -230 -263 -242 -354 -330 -422 -409 l-48 -55 32 64 c18 36 60 110 94 165
86 139 189 326 184 332 -6 5 -107 -132 -156 -211 -18 -27 -32 -47 -32 -43 0 4
27 85 61 180 33 95 65 188 70 206 7 24 4 74 -11 188 -12 85 -20 157 -18 159 2
2 18 -66 36 -152 18 -87 36 -161 41 -166 8 -8 -26 167 -79 403 -17 78 -19 80
-13 25 4 -33 6 -69 5 -80 0 -11 4 -83 10 -161 l10 -140 -37 -100 c-21 -54 -84
-238 -141 -408 -57 -170 -107 -312 -110 -315 -4 -3 -4 3 0 13 17 49 36 312 46
635 5 195 8 356 7 358 -2 2 -12 -102 -22 -229 -10 -128 -22 -240 -26 -248 -6
-10 -8 -3 -9 22 0 20 -4 40 -10 43 -7 4 -10 -89 -11 -272 0 -174 -4 -267 -9
-248 -5 17 -27 131 -49 255 -22 124 -58 313 -79 421 -27 138 -36 204 -29 220
9 26 5 84 -24 329 -20 175 -77 531 -85 540 -6 5 3 -346 12 -485 10 -166 58
-529 110 -839 14 -82 23 -150 21 -152 -5 -6 -23 77 -41 196 -9 58 -23 143 -31
190 -13 79 -13 80 -9 20 6 -65 29 -259 41 -335 5 -35 -9 -17 -115 142 -67 100
-127 185 -134 189 -6 4 -3 -8 9 -27 57 -95 297 -544 328 -614 l35 -80 -31 35
c-77 87 -374 503 -442 619 -23 39 -24 46 -11 66 7 11 23 48 34 81 28 80 133
578 179 851 l37 222 38 -132 c20 -73 69 -235 109 -361 l72 -229 42 89 c57 119
148 346 189 469 18 55 34 93 34 85 1 -42 54 -379 75 -475 43 -201 126 -520
141 -542 13 -20 68 -43 104 -43 9 0 32 34 58 85 23 47 59 105 81 128 65 71 85
124 25 66 l-36 -34 16 39 c15 36 15 37 -1 25 -15 -13 -16 -5 -10 101 l5 115
-37 -105 c-34 -97 -101 -214 -101 -177 0 9 20 73 45 144 25 70 45 130 44 133
0 3 -29 -51 -64 -120 -38 -75 -65 -119 -69 -110 -3 8 -27 98 -55 200 -50 183
-195 628 -210 643 -4 4 -13 -12 -20 -35 -16 -54 -181 -470 -190 -481 -4 -4
-63 115 -131 265 -68 150 -131 289 -142 308 l-18 35 1 -30z m-523 -790 c39
-99 87 -236 108 -305 21 -69 43 -128 49 -132 5 -4 28 -8 50 -8 39 0 41 -2 80
-72 100 -181 269 -419 429 -607 l80 -94 -70 48 c-80 55 -136 102 -324 274
-114 105 -242 213 -300 255 -23 17 44 -72 112 -147 l61 -69 -140 104 c-249
183 -287 210 -274 194 7 -8 54 -46 105 -83 278 -203 361 -269 456 -361 l105
-101 -85 36 c-116 49 -332 125 -337 119 -12 -11 285 -142 432 -191 88 -29 180
-62 205 -73 l45 -20 -35 3 c-19 3 -97 7 -173 10 -77 3 -240 14 -364 25 -124
12 -229 20 -234 18 -5 -2 71 -18 168 -37 206 -40 213 -31 -75 -108 -97 -26
-171 -48 -164 -51 14 -4 174 19 437 63 175 29 368 55 407 55 25 -1 -80 -42
-232 -92 -197 -64 -492 -169 -487 -174 1 -2 72 19 155 47 84 27 166 51 182 52
17 1 30 6 30 10 0 5 4 6 9 3 5 -3 25 1 45 9 19 8 38 15 42 15 13 0 -340 -176
-483 -240 -78 -36 -140 -66 -139 -67 3 -3 237 73 281 92 22 9 36 13 30 7 -5
-5 -125 -86 -265 -180 -311 -207 -601 -419 -597 -435 1 -7 -6 -12 -15 -12 -9
0 -20 -4 -25 -9 -4 -5 -3 -6 5 -2 24 14 12 -2 -15 -20 -20 -13 -25 -13 -18 -3
6 8 -1 3 -14 -11 -13 -14 -20 -18 -16 -10 5 13 4 12 -7 0 -10 -13 -100 -70
-151 -97 -8 -5 186 285 286 427 79 112 196 256 287 353 40 43 71 79 69 81 -2
1 -78 22 -169 46 -91 24 -229 62 -307 86 -78 23 -176 50 -218 60 -41 10 -75
21 -75 25 0 4 30 17 68 29 37 13 198 71 357 130 160 59 327 120 372 136 46 16
83 33 83 37 0 10 -88 104 -427 454 l-264 272 103 -35 c155 -52 788 -178 805
-160 4 4 -100 551 -114 601 -14 53 11 -6 75 -170z m108 -90 c35 -76 106 -282
90 -262 -14 18 -138 312 -151 357 -5 20 -2 18 16 -10 12 -19 32 -57 45 -85z
m-506 -741 c73 -21 88 -37 30 -29 l-45 5 44 -20 c48 -22 52 -37 5 -20 -31 12
-184 99 -184 105 0 2 21 -3 48 -11 26 -8 72 -21 102 -30z m-126 -139 c88 -14
161 -26 163 -28 2 -2 -21 -12 -51 -22 l-55 -19 -138 46 c-162 54 -146 59 81
23z m2811 -76 c-43 -13 -327 -60 -332 -55 -8 7 289 64 337 64 23 0 22 -1 -5
-9z m-1524 -286 c-72 -146 -199 -478 -186 -491 2 -2 15 18 30 45 30 56 32 63
-51 -181 l-64 -188 -162 -172 c-89 -94 -180 -191 -203 -215 l-40 -45 60 51
c33 28 83 75 110 103 28 28 73 70 100 93 51 41 43 33 -279 -303 -138 -143
-139 -144 -133 -105 7 43 28 207 77 609 17 136 37 260 44 275 18 34 43 55 146
126 192 133 473 358 554 444 17 17 31 31 33 31 2 0 -14 -35 -36 -77z m-421
-197 c0 -9 -370 -266 -585 -407 -351 -231 -415 -272 -420 -267 -3 3 131 94
297 204 167 109 366 244 443 299 116 83 252 174 263 175 1 0 2 -2 2 -4z m1898
-267 c49 -32 39 -32 -50 -2 -26 9 -45 20 -42 25 10 16 45 7 92 -23z m-2222
-65 c-3 -9 -6 -19 -6 -23 0 -9 -198 -113 -295 -155 -76 -34 -71 -30 66 56 241
151 247 154 235 122z m-42 -206 c-20 -69 -75 -186 -103 -218 -22 -24 -22 -25
-16 -2 9 30 123 272 129 272 3 0 -2 -24 -10 -52z"/>
<path d="M1200 3356 c0 -3 9 -10 20 -16 11 -6 20 -8 20 -6 0 3 -9 10 -20 16
-11 6 -20 8 -20 6z"/>
<path d="M1270 3316 c0 -3 14 -12 30 -21 17 -9 30 -13 30 -11 0 3 -13 12 -30
21 -16 9 -30 13 -30 11z"/>
<path d="M1345 3273 c6 -6 33 -23 60 -38 28 -16 46 -24 40 -18 -5 6 -32 23
-60 38 -27 16 -45 24 -40 18z"/>
<path d="M1460 3206 c0 -3 14 -12 30 -21 17 -9 30 -13 30 -11 0 3 -13 12 -30
21 -16 9 -30 13 -30 11z"/>
<path d="M1663 2623 c9 -2 23 -2 30 0 6 3 -1 5 -18 5 -16 0 -22 -2 -12 -5z"/>
<path d="M1608 2413 c7 -3 16 -2 19 1 4 3 -2 6 -13 5 -11 0 -14 -3 -6 -6z"/>
<path d="M1427 2232 c-202 -247 -377 -475 -335 -432 32 32 387 480 380 480 -4
-1 -24 -22 -45 -48z"/>
<path d="M1059 1763 c-13 -16 -12 -17 4 -4 9 7 17 15 17 17 0 8 -8 3 -21 -13z"/>
<path d="M1029 1723 c-13 -16 -12 -17 4 -4 9 7 17 15 17 17 0 8 -8 3 -21 -13z"/>
<path d="M2298 2218 c-53 -65 -185 -278 -172 -278 2 0 37 44 78 99 77 104 142
209 133 217 -3 3 -20 -14 -39 -38z"/>
<path d="M2037 1708 c-103 -159 -244 -408 -209 -373 41 42 305 485 289 485 -3
0 -39 -51 -80 -112z"/>
<path d="M2821 3904 c0 -11 3 -14 6 -6 3 7 2 16 -1 19 -3 4 -6 -2 -5 -13z"/>
<path d="M3428 3743 c-50 -76 -168 -293 -168 -310 0 -18 100 154 189 325 18
34 6 26 -21 -15z"/>
<path d="M2633 3675 c0 -22 2 -30 4 -17 2 12 2 30 0 40 -3 9 -5 -1 -4 -23z"/>
<path d="M2321 3484 c0 -11 3 -14 6 -6 3 7 2 16 -1 19 -3 4 -6 -2 -5 -13z"/>
<path d="M3346 3405 c-9 -26 -7 -32 5 -12 6 10 9 21 6 23 -2 3 -7 -2 -11 -11z"/>
<path d="M3790 3271 c-354 -182 -657 -356 -777 -447 -40 -30 -73 -56 -73 -59
0 -6 105 41 235 107 168 84 389 212 600 346 99 63 201 128 228 144 44 28 56
39 40 37 -5 -1 -118 -58 -253 -128z"/>
<path d="M2556 2328 c-14 -55 -28 -682 -21 -1003 7 -374 21 -545 24 -293 0 81
8 301 17 490 22 471 11 921 -20 806z"/>
<path d="M4080 2239 c-90 -24 -455 -134 -490 -148 -60 -24 8 -7 214 54 122 35
259 75 306 89 101 29 78 33 -30 5z"/>
<path d="M2462 1910 c0 -14 2 -19 5 -12 2 6 2 18 0 25 -3 6 -5 1 -5 -13z"/>
<path d="M3260 1386 c0 -2 8 -10 18 -17 15 -13 16 -12 3 4 -13 16 -21 21 -21
13z"/>
<path d="M3320 1315 c13 -14 26 -25 28 -25 3 0 -5 11 -18 25 -13 14 -26 25
-28 25 -3 0 5 -11 18 -25z"/>
</g>
</svg>