<svg height="800" width="800" xmlns="http://www.w3.org/2000/svg" viewBox="0 0 512 512" xml:space="preserve"><path d="M280.069 0C175.516 0 90.294 84.355 88.887 188.58L40.731 327.056h48.137V430.24h93.414V512h219.545V338.607c20.245-16.76 37.064-37.758 48.903-61.125 13.628-26.9 20.538-55.929 20.538-86.282C471.269 85.773 385.497 0 280.069 0zM420.57 192.3a144.913 144.913 0 0 1-.069 3.494c-.85 26.611-15.351 50.213-38.79 63.137-11.577 6.385-24.193 9.57-36.782 9.57-13.236 0-26.442-3.518-38.398-10.541l-97.618-57.337c-23.312-13.691-37.295-38.023-37.405-65.087-.109-26.911 13.578-51.208 36.616-64.994 22.509-13.468 48.313-20.313 74.649-19.824 76.561 1.451 138.376 64.959 137.796 141.572v.01z"/></svg>