<?xml version="1.0" encoding="iso-8859-1"?>
<!-- Uploaded to: SVG Repo, www.svgrepo.com, Generator: SVG Repo Mixer Tools -->
<svg height="800px" width="800px" version="1.1" id="Capa_1" xmlns="http://www.w3.org/2000/svg" xmlns:xlink="http://www.w3.org/1999/xlink" 
	 viewBox="0 0 385.43 385.43" xml:space="preserve">
<g>
	<path style="fill:#010002;" d="M385.43,192.718c-0.006-22.185-21.904-41.911-57.604-55.957
		c15.311-35.181,16.85-64.627,1.164-80.308c-7.447-7.447-17.96-11.224-31.225-11.224c-14.159,0-30.938,4.404-49.101,12.351
		c-14.046-35.682-33.772-57.574-55.951-57.574s-41.893,21.886-55.945,57.568c-18.163-7.948-34.936-12.351-49.095-12.351
		c-13.276,0-23.784,3.777-31.231,11.224c-15.687,15.687-14.147,45.127,1.164,80.308C21.904,150.801,0.006,170.533,0,192.712
		c0,22.185,21.904,41.911,57.61,55.963c-15.305,35.181-16.85,64.615-1.164,80.308c7.447,7.447,17.96,11.224,31.225,11.224
		c14.153,0,30.932-4.398,49.095-12.351c14.046,35.682,33.772,57.568,55.945,57.568c22.179,0,41.899-21.886,55.951-57.568
		c18.163,7.954,34.936,12.351,49.095,12.351c13.276,0,23.778-3.777,31.225-11.224c15.687-15.687,14.147-45.127-1.164-80.308
		C363.52,234.629,385.43,214.903,385.43,192.718z M297.759,57.157c9.995,0,17.662,2.602,22.787,7.727
		c11.343,11.349,10,36.183-3.896,67.802c-15.299-5.132-32.686-9.29-51.607-12.304c-3.007-18.897-7.16-36.261-12.28-51.548
		C269.637,61.345,285.061,57.157,297.759,57.157z M258.604,192.712c0,9.237-0.268,18.193-0.74,26.887
		c-5.859,6.546-11.958,13.115-18.551,19.715c-6.456,6.456-13.038,12.644-19.661,18.551c-8.712,0.477-17.686,0.746-26.94,0.746
		s-18.229-0.269-26.94-0.746c-6.623-5.907-13.205-12.095-19.661-18.551c-6.593-6.593-12.692-13.175-18.557-19.726
		c-0.471-8.688-0.74-17.644-0.74-26.875c0-9.231,0.268-18.175,0.74-26.863c5.865-6.552,11.964-13.133,18.563-19.732
		c6.456-6.456,13.032-12.644,19.661-18.557c8.712-0.477,17.68-0.746,26.934-0.746s18.223,0.269,26.934,0.746
		c6.629,5.913,13.205,12.101,19.661,18.557c6.593,6.599,12.692,13.175,18.557,19.726
		C258.336,174.531,258.604,183.481,258.604,192.712z M247.744,137.68c-2.954-2.96-5.943-5.83-8.932-8.67
		c5.388,0.525,10.639,1.14,15.77,1.838c0.692,5.12,1.313,10.364,1.838,15.747C253.574,143.611,250.704,140.639,247.744,137.68z
		 M224.48,115.912c-7.208-6.331-14.452-12.304-21.69-17.901c13.402-9.523,26.606-17.614,39.184-24.023
		c4.308,13.127,7.978,28.086,10.764,44.626C243.615,117.446,234.182,116.539,224.48,115.912z M204.944,115.047
		c-4.046-0.095-8.115-0.161-12.232-0.161c-4.117,0-8.187,0.066-12.232,0.161c4.081-3.335,8.157-6.546,12.232-9.637
		C196.793,108.508,200.869,111.718,204.944,115.047z M160.944,115.912c-9.708,0.627-19.142,1.533-28.265,2.703
		c2.787-16.546,6.45-31.505,10.764-44.632c12.584,6.414,25.783,14.505,39.19,24.029
		C175.396,103.609,168.152,109.582,160.944,115.912z M146.612,129.01c-2.989,2.846-5.973,5.716-8.932,8.67
		c-2.96,2.96-5.842,5.937-8.676,8.92c0.525-5.382,1.14-10.627,1.838-15.753C135.967,130.155,141.224,129.535,146.612,129.01z
		 M115.906,160.909c-6.402,7.292-12.423,14.589-18.038,21.857c-9.762-13.712-17.757-26.917-23.999-39.28
		c13.157-4.326,28.152-8.008,44.74-10.8C117.44,141.797,116.527,151.218,115.906,160.909z M115.047,180.408
		c-0.107,4.069-0.167,8.163-0.167,12.304c0,4.141,0.072,8.24,0.167,12.31c-3.401-4.129-6.665-8.234-9.768-12.31
		C108.382,188.649,111.646,184.549,115.047,180.408z M115.906,224.527c0.627,9.69,1.533,19.106,2.703,28.217
		c-16.594-2.798-31.589-6.474-44.74-10.8c6.241-12.363,14.237-25.568,23.993-39.28C103.483,209.938,109.504,217.236,115.906,224.527
		z M129.004,238.836c2.84,2.977,5.71,5.949,8.67,8.909c2.954,2.954,5.943,5.83,8.932,8.67c-5.388-0.525-10.639-1.14-15.77-1.838
		C130.149,249.463,129.529,244.218,129.004,238.836z M160.932,269.518c7.214,6.331,14.458,12.31,21.702,17.907
		c-13.408,9.523-26.606,17.614-39.19,24.023c-4.308-13.127-7.978-28.086-10.764-44.632
		C141.803,267.984,151.236,268.897,160.932,269.518z M180.474,270.383c4.052,0.101,8.115,0.161,12.238,0.161
		s8.187-0.066,12.238-0.161c-4.081,3.335-8.157,6.546-12.238,9.637C188.631,276.922,184.555,273.712,180.474,270.383z
		 M224.486,269.518c9.702-0.621,19.13-1.533,28.253-2.697c-2.787,16.54-6.456,31.499-10.764,44.626
		c-12.584-6.414-25.783-14.505-39.184-24.023C210.028,281.827,217.278,275.848,224.486,269.518z M238.818,256.42
		c2.989-2.846,5.979-5.716,8.932-8.67s5.836-5.925,8.664-8.903c-0.525,5.376-1.14,10.621-1.838,15.741
		C249.451,255.275,244.206,255.895,238.818,256.42z M269.512,224.533c6.402-7.292,12.429-14.589,18.044-21.863
		c9.756,13.712,17.751,26.917,23.993,39.28c-13.157,4.326-28.152,8.008-44.746,10.8
		C267.978,243.639,268.885,234.224,269.512,224.533z M270.371,205.028c0.101-4.075,0.167-8.169,0.167-12.316
		c0-4.141-0.072-8.234-0.161-12.304c3.395,4.135,6.665,8.24,9.768,12.316C277.042,196.793,273.772,200.899,270.371,205.028z
		 M269.512,160.903c-0.627-9.69-1.534-19.112-2.697-28.217c16.594,2.792,31.589,6.474,44.746,10.806
		c-6.247,12.363-14.243,25.574-23.999,39.28C281.941,175.504,275.92,168.2,269.512,160.903z M192.706,11.934
		c16.045,0,32.669,18.497,45.199,50.689c-14.535,7.268-29.763,16.612-45.193,27.818c-15.436-11.206-30.67-20.55-45.199-27.824
		C160.043,30.431,176.661,11.934,192.706,11.934z M64.872,64.884c5.126-5.126,12.805-7.727,22.793-7.727
		c12.697,0,28.122,4.189,44.99,11.677c-5.12,15.287-9.278,32.651-12.286,51.554c-18.927,3.013-36.302,7.172-51.601,12.304
		C54.871,101.067,53.529,76.233,64.872,64.884z M11.928,192.718c0.006-16.045,18.503-32.663,50.689-45.199
		c7.19,14.446,16.54,29.685,27.8,45.199c-11.254,15.52-20.604,30.747-27.8,45.199C30.431,225.387,11.928,208.763,11.928,192.718z
		 M87.671,328.279c-9.994,0-17.662-2.602-22.787-7.727c-11.343-11.349-10-36.183,3.896-67.802
		c15.293,5.126,32.681,9.29,51.596,12.304c3.013,18.903,7.16,36.261,12.286,51.554C115.787,324.096,100.363,328.279,87.671,328.279z
		 M192.706,373.496c-16.045,0-32.663-18.497-45.193-50.677c14.535-7.274,29.763-16.612,45.199-27.818
		c15.43,11.2,30.664,20.544,45.193,27.818C225.369,354.999,208.751,373.496,192.706,373.496z M320.54,320.552
		c-5.126,5.126-12.799,7.727-22.787,7.727c-12.698,0-28.122-4.189-44.99-11.683c5.12-15.287,9.273-32.645,12.286-51.548
		c18.921-3.013,36.302-7.172,51.602-12.298C330.541,284.369,331.883,309.203,320.54,320.552z M322.802,237.917
		c-7.19-14.446-16.54-29.685-27.794-45.193c11.259-15.52,20.61-30.753,27.8-45.205c32.191,12.536,50.683,29.148,50.689,45.199
		C373.496,208.763,354.993,225.387,322.802,237.917z"/>
</g>
</svg>