<svg version="1.1" id="Layer_1" xmlns="http://www.w3.org/2000/svg" xmlns:xlink="http://www.w3.org/1999/xlink" x="0px" y="0px"
	 width="100%" viewBox="0 0 228 221" enable-background="new 0 0 228 221" xml:space="preserve">
<path fill="#FEFEFE" opacity="1.000000" stroke="none" 
	d="
M135.000000,222.000000 
	C90.000000,222.000000 45.500004,222.000000 1.000006,222.000000 
	C1.000004,148.333344 1.000004,74.666679 1.000002,1.000016 
	C76.999992,1.000011 152.999985,1.000011 228.999969,1.000005 
	C228.999985,74.666649 228.999985,148.333298 229.000000,221.999969 
	C197.833328,222.000000 166.666672,222.000000 135.000000,222.000000 
M22.898701,191.731400 
	C24.177004,196.631271 24.418257,202.153305 26.918161,206.320297 
	C36.334949,222.016769 59.135326,221.810715 69.272247,205.537704 
	C73.895645,198.115662 76.971046,189.292374 78.874893,180.689957 
	C86.522240,146.135956 87.710236,110.766136 91.031143,75.670067 
	C92.203125,63.284428 93.193687,50.881618 94.280304,38.333912 
	C110.598549,38.333912 126.517235,38.333912 142.603271,38.333912 
	C142.676056,39.179779 142.826355,39.819145 142.770813,40.440098 
	C140.352921,67.462463 137.597046,94.459496 135.591690,121.512192 
	C134.178040,140.582535 132.196564,159.819870 133.296326,178.818985 
	C134.992081,208.114304 158.735977,221.775543 185.199753,216.411484 
	C200.125504,213.386124 209.316986,203.075500 215.870743,190.107635 
	C221.449478,179.069031 224.445221,167.329849 224.867386,154.942078 
	C221.909622,154.942078 219.468414,154.942078 216.870895,154.942078 
	C216.535385,157.141678 216.275436,159.118561 215.927963,161.079956 
	C213.640030,173.994858 204.926788,181.886597 192.193558,182.601868 
	C180.163452,183.277634 171.017044,176.929001 168.292282,163.849731 
	C166.212158,153.864670 165.179703,143.359848 165.711258,133.192383 
	C166.979568,108.932266 169.499634,84.738922 171.400665,60.509708 
	C171.956451,53.426273 172.130386,46.312878 172.491486,38.966011 
	C190.006866,38.966011 207.273666,38.966011 224.467438,38.966011 
	C224.467438,27.809753 224.467438,16.923557 224.467438,5.913782 
	C222.705917,5.809466 221.387421,5.669930 220.068161,5.662241 
	C186.408386,5.466070 152.741058,4.780070 119.091339,5.278354 
	C97.152626,5.603222 75.187836,7.096650 53.333118,9.126184 
	C38.954704,10.461435 26.685125,16.871237 20.536495,30.990633 
	C15.249025,43.132507 10.707003,55.599316 5.872071,67.936836 
	C5.672407,68.446327 5.846568,69.102310 5.846568,69.659233 
	C13.369346,70.426941 13.364432,70.424080 17.020193,64.139755 
	C18.271126,61.989384 19.498867,59.822674 20.830124,57.722321 
	C31.126028,41.478287 54.966900,33.027794 73.805733,39.120029 
	C73.511604,45.344952 73.332535,51.662422 72.894646,57.961903 
	C71.065048,84.282494 66.498955,109.996422 55.864208,134.368057 
	C49.023266,150.045441 38.764133,163.551697 29.085785,177.464554 
	C26.321785,181.437851 24.930407,186.366013 22.898701,191.731400 
z"/>
<path fill="#020202" opacity="1.000000" stroke="none" 
	d="
M22.904160,191.293854 
	C24.930407,186.366013 26.321785,181.437851 29.085785,177.464554 
	C38.764133,163.551697 49.023266,150.045441 55.864208,134.368057 
	C66.498955,109.996422 71.065048,84.282494 72.894646,57.961903 
	C73.332535,51.662422 73.511604,45.344952 73.805733,39.120029 
	C54.966900,33.027794 31.126028,41.478287 20.830124,57.722321 
	C19.498867,59.822674 18.271126,61.989384 17.020193,64.139755 
	C13.364432,70.424080 13.369346,70.426941 5.846568,69.659233 
	C5.846568,69.102310 5.672407,68.446327 5.872071,67.936836 
	C10.707003,55.599316 15.249025,43.132507 20.536495,30.990633 
	C26.685125,16.871237 38.954704,10.461435 53.333118,9.126184 
	C75.187836,7.096650 97.152626,5.603222 119.091339,5.278354 
	C152.741058,4.780070 186.408386,5.466070 220.068161,5.662241 
	C221.387421,5.669930 222.705917,5.809466 224.467438,5.913782 
	C224.467438,16.923557 224.467438,27.809753 224.467438,38.966011 
	C207.273666,38.966011 190.006866,38.966011 172.491486,38.966011 
	C172.130386,46.312878 171.956451,53.426273 171.400665,60.509708 
	C169.499634,84.738922 166.979568,108.932266 165.711258,133.192383 
	C165.179703,143.359848 166.212158,153.864670 168.292282,163.849731 
	C171.017044,176.929001 180.163452,183.277634 192.193558,182.601868 
	C204.926788,181.886597 213.640030,173.994858 215.927963,161.079956 
	C216.275436,159.118561 216.535385,157.141678 216.870895,154.942078 
	C219.468414,154.942078 221.909622,154.942078 224.867386,154.942078 
	C224.445221,167.329849 221.449478,179.069031 215.870743,190.107635 
	C209.316986,203.075500 200.125504,213.386124 185.199753,216.411484 
	C158.735977,221.775543 134.992081,208.114304 133.296326,178.818985 
	C132.196564,159.819870 134.178040,140.582535 135.591690,121.512192 
	C137.597046,94.459496 140.352921,67.462463 142.770813,40.440098 
	C142.826355,39.819145 142.676056,39.179779 142.603271,38.333912 
	C126.517235,38.333912 110.598549,38.333912 94.280304,38.333912 
	C93.193687,50.881618 92.203125,63.284428 91.031143,75.670067 
	C87.710236,110.766136 86.522240,146.135956 78.874893,180.689957 
	C76.971046,189.292374 73.895645,198.115662 69.272247,205.537704 
	C59.135326,221.810715 36.334949,222.016769 26.918161,206.320297 
	C24.418257,202.153305 24.177004,196.631271 22.904160,191.293854 
z"/>
</svg>