<svg xmlns="http://www.w3.org/2000/svg" width="496" height="480"><path d="m438.22802734 8.64404297 2.27796102.01614785C456.0040156 8.77030667 471.50200226 8.88575912 487 9l1 74H373v30c-.31725084 6.79191715-.68434585 13.54339728-1.21484375 20.31640625-.1340483 1.81113676-.2677386 3.62230004-.40110779 5.43348694-1.73708105 23.13566429-4.01533407 46.22731558-6.24952698 69.31907654-3.1583017 32.53054037-3.1583017 32.53054037-5.39624023 65.13415527l-.11914254 2.19875908c-3.22130518 55.55383246-3.22130518 55.55383246 19.22070504 104.66061592 9.37009413 8.89105047 21.76634487 12.340019 34.41015625 12.25l2.52539062-.01708984C429.208001 392.03268869 440.78264788 387.90533259 451 379c11.26132693-12.96758858 15.32433614-28.24336145 17-45 1-1 1-1 2.85766601-1.1135254.79075928.00523683 1.58151856.01047364 2.39624024.01586915l2.58789062.00976563L478.5625 332.9375l2.73242187.01367188c2.23509126.01182588 4.4700525.02830592 6.70507813.04882812-1.10257854 41.56721092-15.57447568 85.2754681-46.15625 114.5390625-20.96312864 18.141169-45.69601446 24.6354905-72.96875 23.2734375C343.9384704 468.46382686 322.32160136 458.23536004 306 439c-31.22093618-40.18120485-20.86996242-98.11862161-17.296875-145.1171875l.25427246-3.3701477c2.29512125-30.2190082 5.28677093-60.3734356 8.24050903-90.53344727.98253895-10.03408238 1.9593943-20.06869247 2.92709351-30.10421753l.3791809-3.9251709c2.04614445-21.27110944 3.78260271-42.55636996 5.29122925-63.87219238l.22810364-3.1904297c.13861384-1.94916172.27431497-3.8985338.40646362-5.84814452l.18452454-2.60595703.15376282-2.24368286C307.02418121 85.77153717 307.52316495 83.38417524 308 81H204l-2.16015625 25.51171875C185.35798795 300.9089659 185.35798795 300.9089659 146 450l-2.25 3.125c-11.63596458 12.16487205-26.43985822 17.72021218-43 18.25-14.73397065-.2522432-27.89755814-5.55105243-38.625-15.6875-11.23892025-12.01121495-15.741093-26.57329341-15.39453125-42.81640625 1.17385351-16.85925836 12.75550768-30.86009794 22.66210937-43.76171875C129.37666895 290.39392167 152.47683642 199.6198937 157 82c-32.39023849-1.72994096-67.85956152-2.52099316-94 20l-2.12109375 1.65625c-11.28629657 9.23246444-18.24917083 22.33371275-25.41308594 34.7915039-1.46217257 2.53422199-2.96100992 5.04323066-4.4658203 7.5522461-.58523439 1.04414063-1.17046876 2.08828125-1.7734375 3.1640625-3.11265542 2.56657552-5.40881005 2.20443029-9.33203126 1.91992188L17.25 150.8125l-2.69140625-.21289062C12.36931206 150.4230544 10.18501065 150.22250036 8 150c2.51095654-7.82877361 5.44722978-15.46876978 8.4375-23.125 1.0813857-2.77318193 2.16194462-5.54668522 3.2421875-8.3203125l.8351593-2.14239502c1.8805432-4.83253353 3.72636882-9.67727187 5.5554657-14.52947998C42.73173784 57.79325949 42.73173784 57.79325949 55 44l1.94921875-2.2421875c30.82842472-33.1421199 91.57691885-31.04214408 133.16259765-32.5625 82.6332256-2.83355586 165.45651087-1.13728642 248.11621094-.55126953Z"/></svg>