<svg role="img" viewBox="0 0 500 500" xmlns="http://www.w3.org/2000/svg" id="Python--Streamline-Simple-Icons.svg" height="500" width="500"><desc>Python Streamline Icon: https://streamlinehq.com</desc><title>Python</title><path d="m295.7083333333333 9.874999999999998 18.283333333333335 4.0625 14.831249999999999 5.283333333333333 11.985416666666667 6.093749999999999 9.141666666666667 6.502083333333332 6.90625 6.90625 5.079166666666666 6.90625 3.25 6.704166666666666 2.033333333333333 6.095833333333333 0.8125 5.28125 0.40625 4.0625 -0.20416666666666664 2.6416666666666666v108.48333333333333l-1.0166666666666666 12.797916666666666 -2.6395833333333334 11.172916666666666 -4.266666666666667 9.345833333333333 -5.28125 7.718749999999999 -6.095833333333333 6.297916666666667 -6.704166666666666 5.079166666666666 -7.110416666666666 3.860416666666666 -7.108333333333333 2.84375 -6.704166666666666 2.03125 -6.095833333333333 1.4229166666666666 -5.28125 0.8125 -4.266666666666667 0.40625H184.38125l-14.016666666666666 1.0145833333333332 -11.985416666666667 2.84375 -10.158333333333331 4.470833333333333 -8.329166666666666 5.4833333333333325 -6.704166666666666 6.502083333333332 -5.4833333333333325 7.110416666666666 -4.064583333333333 7.312499999999999 -3.045833333333333 7.516666666666667 -2.03125 7.110416666666666 -1.4229166666666666 6.5 -0.8125 5.485416666666666 -0.40625 4.266666666666667v62.16458333333333H70.61666666666666l-4.2645833333333325 -0.6104166666666666 -5.689583333333333 -1.4208333333333332 -6.5 -2.4375 -7.110416666666666 -3.658333333333333 -7.312499999999999 -5.28125 -7.314583333333333 -7.312499999999999 -7.110416666666666 -9.345833333333333 -6.5 -11.985416666666667 -5.6875 -14.829166666666666 -4.266666666666667 -17.879166666666666 -2.84375 -21.329166666666666L4.999999999999999 249.39166666666665l1.21875 -24.785416666666666 3.25 -21.12708333333333 4.877083333333333 -17.675 6.5 -14.422916666666666 7.312499999999999 -11.579166666666666 8.127083333333333 -8.939583333333333 8.531249999999998 -6.704166666666666 8.533333333333333 -4.875 8.125 -3.25 7.314583333333333 -2.03125 6.5 -1.0166666666666666 4.877083333333333 -0.20208333333333334h3.25l1.21875 0.20208333333333334h165.77083333333331V116.12499999999999H131.76666666666665L131.5625 60.258333333333326l-0.40625 -7.516666666666667 1.0166666666666666 -6.908333333333333 2.2333333333333334 -6.297916666666667 3.4541666666666666 -5.6875 5.079166666666666 -5.28125 6.297916666666667 -4.672916666666667 7.718749999999999 -4.0625 8.939583333333333 -3.6562499999999996 10.360416666666666 -3.0479166666666666 11.783333333333333 -2.4375 13 -2.03125 14.424999999999999 -1.21875 15.641666666666666 -0.8125 17.064583333333335 -0.40625 25.799999999999997 1.0145833333333332ZM167.72291666666666 50.099999999999994l-4.670833333333333 6.704166666666666 -1.625 8.329166666666666 1.625 8.329166666666666 4.670833333333333 6.90625 6.704166666666666 4.46875 8.329166666666666 1.8291666666666666 8.329166666666666 -1.8291666666666666 6.704166666666666 -4.46875 4.672916666666667 -6.90625 1.625 -8.329166666666666 -1.625 -8.329166666666666 -4.672916666666667 -6.704166666666666 -6.704166666666666 -4.470833333333333 -8.329166666666666 -1.8270833333333332 -8.329166666666666 1.8270833333333332Zm265.925 80.24374999999999 5.689583333333333 1.21875 6.5 2.4375 7.110416666666666 3.658333333333333 7.312499999999999 5.4833333333333325 7.314583333333333 7.110416666666666 7.110416666666666 9.547916666666666 6.5 11.987499999999999 5.6875 14.829166666666666 4.266666666666667 17.87708333333333 2.84375 21.12708333333333 1.0166666666666666 24.9875 -1.21875 24.9875 -3.25 21.129166666666666 -4.877083333333333 17.47083333333333 -6.5 14.422916666666666 -7.314583333333333 11.579166666666666 -8.125 9.141666666666667 -8.533333333333333 6.704166666666666 -8.531249999999998 4.877083333333333 -8.127083333333333 3.25 -7.312499999999999 1.8270833333333332 -6.5 1.0166666666666666 -4.877083333333333 0.40625 -3.25 -0.20208333333333334h-166.98958333333331v16.65833333333333h118.63958333333333l0.20416666666666664 56.068749999999994 0.40625 7.312499999999999 -1.0166666666666666 6.908333333333333 -2.2333333333333334 6.297916666666667 -3.4541666666666666 5.891666666666667 -5.079166666666666 5.077083333333333 -6.297916666666667 4.877083333333333 -7.718749999999999 4.0625 -8.939583333333333 3.4541666666666666 -10.360416666666666 3.045833333333333 -11.783333333333333 2.6416666666666666 -13 1.8291666666666666 -14.424999999999999 1.4208333333333332 -15.641666666666666 0.8125 -17.064583333333335 0.20416666666666664 -25.799999999999997 -0.8125 -21.7375 -2.845833333333333 -18.283333333333335 -4.0625 -14.831249999999999 -5.079166666666666 -11.985416666666667 -6.093749999999999 -9.141666666666667 -6.704166666666666 -6.90625 -6.90625 -5.079166666666666 -6.908333333333333 -3.25 -6.704166666666666 -2.033333333333333 -6.093749999999999 -0.8125 -5.079166666666666 -0.40625 -4.0625 0.20416666666666664 -2.6416666666666666v-108.48124999999999l1.0166666666666666 -13.002083333333333 2.6395833333333334 -10.970833333333331 4.266666666666667 -9.34375 5.28125 -7.720833333333332 6.095833333333333 -6.5 6.704166666666666 -4.877083333333333 7.110416666666666 -4.0625 7.108333333333333 -2.84375 6.704166666666666 -2.03125 6.095833333333333 -1.21875 5.28125 -0.8125 4.266666666666667 -0.40625 2.6416666666666666 -0.20416666666666664h118.63958333333333l14.016666666666666 -1.0145833333333332 11.985416666666667 -2.84375 10.158333333333331 -4.266666666666667 8.329166666666666 -5.689583333333333 6.704166666666666 -6.5 5.485416666666666 -7.110416666666666 4.0625 -7.312499999999999 3.0479166666666666 -7.314583333333333 2.03125 -7.110416666666666 1.4208333333333332 -6.5 0.8125 -5.6875 0.40625 -4.266666666666667V129.53125h42.45833333333333l2.845833333333333 0.20416666666666664Zm-131.4375 289.4895833333333 -4.672916666666667 6.704166666666666 -1.625 8.329166666666666 1.625 8.329166666666666 4.672916666666667 6.704166666666666 6.704166666666666 4.672916666666667 8.329166666666666 1.625 8.329166666666666 -1.625 6.704166666666666 -4.672916666666667 4.670833333333333 -6.704166666666666 1.625 -8.329166666666666 -1.625 -8.329166666666666 -4.670833333333333 -6.704166666666666 -6.704166666666666 -4.670833333333333 -8.329166666666666 -1.6270833333333332 -8.329166666666666 1.6270833333333332Z" fill="#000000" stroke-width="1"></path></svg>