<svg xmlns="http://www.w3.org/2000/svg" viewBox="0 10.449999809265137 174.60000610351562 55.04999923706055" data-asc="1.13"><g fill="#000000"><g fill="#000000" transform="translate(0, 0)"><path d="M52.85 59.90Q49.95 62.50 47.68 64.00Q45.40 65.50 44.20 65.50Q43.20 65.50 43.20 64.60Q43.20 64.15 43.73 63.67Q44.25 63.20 45.15 62.75Q46.05 62.30 47.10 61.87Q48.15 61.45 49.20 61.00Q53.15 59.40 57.25 56.85Q61.35 54.30 65.23 51.05Q69.10 47.80 72.50 44.12Q75.90 40.45 78.48 36.60Q81.05 32.75 82.50 28.97Q83.95 25.20 83.95 21.80Q83.95 20.60 83.53 19.47Q83.10 18.35 82.50 17.85L82.85 17.55Q83.65 18.20 84.10 19.50Q84.55 20.80 84.55 22.30Q84.55 25.65 83.00 29.47Q81.45 33.30 78.75 37.22Q76.05 41.15 72.58 44.90Q69.10 48.65 65.25 51.90Q61.40 55.15 57.50 57.55Q53.60 59.95 50.10 61.20Q49.20 61.50 48.20 61.90Q47.20 62.30 46.30 62.72Q45.40 63.15 44.83 63.57Q44.25 64.00 44.25 64.35Q44.25 64.65 44.75 64.65Q45.85 64.65 47.63 63.40Q49.40 62.15 51.40 60.20Q54.20 57.40 56.48 53.77Q58.75 50.15 60.45 46.15Q62.15 42.15 63.23 38.25Q64.30 34.35 64.75 31.00Q65.40 25.50 66.53 22.52Q67.65 19.55 69.20 19.55Q70.80 19.55 70.80 22.75Q70.80 24.75 70.03 27.05Q69.25 29.35 67.98 31.72Q66.70 34.10 65.17 36.35Q63.65 38.60 62.13 40.50Q60.60 42.40 59.40 43.70Q57.00 46.30 53.93 48.95Q50.85 51.60 47.50 54.02Q44.15 56.45 40.85 58.32Q37.55 60.20 34.70 61.20Q33.80 61.50 32.80 61.90Q31.80 62.30 30.90 62.72Q30 63.15 29.43 63.57Q28.85 64.00 28.85 64.35Q28.85 64.65 29.35 64.65Q30.75 64.65 33.13 62.77Q35.50 60.90 38.25 57.60Q41.00 54.30 43.50 50.10Q46.30 45.80 48.18 40.92Q50.05 36.05 50.05 31.35Q50.05 26.85 48.23 23.10Q46.40 19.35 43.08 16.62Q39.75 13.90 35.18 12.42Q30.60 10.95 25.05 10.95Q20.20 10.95 16 12.20Q11.80 13.45 8.68 15.67Q5.55 17.90 3.80 20.87Q2.05 23.85 2.05 27.35Q2.05 31.30 4.30 34.35Q6.55 37.40 10.55 39.10Q14.55 40.80 19.75 40.80Q23.55 40.80 26.65 39.80Q29.75 38.80 31.60 37.15Q33.45 35.50 33.45 33.50Q33.45 31.35 31.15 30.05Q28.85 28.75 25.15 28.75Q22.10 28.75 19.43 29.57Q16.75 30.40 14.73 31.85Q12.70 33.30 11.55 35.20Q10.40 37.10 10.40 39.30Q10.40 41.85 12.07 43.77Q13.75 45.70 16.73 46.77Q19.70 47.85 23.60 47.85Q28.30 47.85 32.03 46.70Q35.75 45.55 38.35 43.57Q40.95 41.60 42.30 39.05Q43.65 36.50 43.65 33.70Q43.65 29.80 41.15 26.80Q38.65 23.80 34.25 22.10Q29.85 20.40 24.15 20.40Q19.15 20.40 14.85 21.85Q10.55 23.30 7.33 25.92Q4.10 28.55 2.30 32.05Q0.50 35.55 0.50 39.60Q0.50 44.70 3.43 48.50Q6.35 52.30 11.60 54.40Q16.85 56.50 23.80 56.50Q28.20 56.50 31.90 55.52Q35.60 54.55 38.25 52.82Q40.90 51.10 42.05 48.80L42.55 48.95Q41.35 51.35 38.60 53.15Q35.85 54.95 32.05 55.97Q28.25 57.00 23.80 57.00Q16.70 57.00 11.32 54.82Q5.95 52.65 2.98 48.72Q0 44.80 0 39.60Q0 35.45 1.83 31.85Q3.65 28.25 6.95 25.57Q10.25 22.90 14.65 21.40Q19.05 19.90 24.15 19.90Q30.10 19.90 34.60 21.65Q39.10 23.40 41.63 26.50Q44.15 29.60 44.15 33.70Q44.15 36.55 42.78 39.20Q41.40 41.85 38.78 43.92Q36.15 46.00 32.33 47.20Q28.50 48.40 23.60 48.40Q19.50 48.40 16.40 47.25Q13.30 46.10 11.60 44.00Q9.90 41.90 9.90 39.15Q9.90 36.90 11.10 34.92Q12.30 32.95 14.38 31.45Q16.45 29.95 19.23 29.10Q22 28.25 25.15 28.25Q29.10 28.25 31.55 29.70Q34.00 31.15 34.00 33.50Q34.00 35.60 32.05 37.37Q30.10 39.15 26.88 40.22Q23.65 41.30 19.70 41.30Q14.40 41.30 10.30 39.50Q6.20 37.70 3.88 34.57Q1.55 31.45 1.55 27.35Q1.55 23.75 3.35 20.67Q5.15 17.60 8.35 15.30Q11.55 13.00 15.88 11.72Q20.20 10.45 25.20 10.45Q31.50 10.45 36.68 12.12Q41.85 13.80 45.60 16.90Q49.35 20.00 51.40 24.27Q53.45 28.55 53.45 33.70Q53.45 37.25 51.68 41.72Q49.90 46.20 46.50 50.30Q44.90 52.35 42.93 54.50Q40.95 56.65 38.88 58.62Q36.80 60.60 34.85 62.15Q32.90 63.70 31.32 64.60Q29.75 65.50 28.80 65.50Q27.80 65.50 27.80 64.60Q27.80 64.15 28.32 63.67Q28.85 63.20 29.75 62.75Q30.65 62.30 31.70 61.85Q32.75 61.40 33.80 61.00Q40.85 58.20 47.23 53.50Q53.60 48.80 58.75 43.35Q62.20 39.50 64.80 35.55Q67.40 31.60 68.83 28.12Q70.25 24.65 70.25 22.25Q70.25 20.05 69.20 20.05Q68.45 20.05 67.93 21.00Q67.40 21.95 66.93 24.47Q66.45 27.00 65.85 31.85Q65.40 35.20 64.55 38.90Q63.70 42.60 62.23 46.32Q60.75 50.05 58.45 53.52Q56.15 57.00 52.85 59.90ZM76.05 56.65Q77.70 56.65 79.90 55.60Q82.10 54.55 84.45 52.75Q86.80 50.95 88.80 48.70L89.40 48.05L89.90 48.05L89.45 48.55Q87.35 50.90 84.88 52.82Q82.40 54.75 80.08 55.85Q77.75 56.95 76.05 56.95Q74.75 56.95 73.98 56.02Q73.20 55.10 73.20 53.50Q73.20 51.90 74.15 50.15Q75.10 48.40 76.68 46.72Q78.25 45.05 80.23 43.70Q82.20 42.35 84.28 41.55Q86.35 40.75 88.25 40.75Q89.10 40.75 89.60 41.10Q90.10 41.45 90.10 42.00Q90.10 43.05 88.93 44.20Q87.75 45.35 85.90 46.35Q84.05 47.35 81.95 48.00Q79.85 48.65 77.95 48.65L78.40 48.20Q80.20 48.10 82.13 47.50Q84.05 46.90 85.70 45.95Q87.35 45.00 88.40 43.95Q89.45 42.90 89.45 42.00Q89.45 41.20 88.40 41.20Q87.20 41.20 85.43 42.25Q83.65 43.30 81.75 44.95Q79.85 46.60 78.20 48.52Q76.55 50.45 75.53 52.22Q74.50 54.00 74.50 55.25Q74.50 56.65 76.05 56.65ZM87.70 56.95Q85.95 56.95 85.95 55.00Q85.95 51.95 89.40 48.05L120.60 12.80L124.70 12.80Q123.65 13.30 121.53 15.22Q119.40 17.15 116.65 20.00Q113.90 22.85 110.90 26.20L92.25 47.25Q89.30 50.60 88.13 52.42Q86.95 54.25 86.95 55.50Q86.95 56.65 87.85 56.65Q89.55 56.65 92.48 54.52Q95.40 52.40 98.65 48.70L99.20 48.05L99.70 48.05L99.25 48.55Q95.70 52.60 92.73 54.77Q89.75 56.95 87.70 56.95ZM99.80 56.95Q98.55 56.95 97.78 55.95Q97 54.95 97 53.40Q97 51.80 97.92 50.05Q98.85 48.30 100.42 46.65Q102 45.00 103.95 43.67Q105.90 42.35 107.98 41.55Q110.05 40.75 111.95 40.75Q114.40 40.75 114.40 42.25Q114.40 43.05 113.53 44.30Q112.65 45.55 111.50 46.40L109.20 46.40Q110.20 45.95 111.23 45.10Q112.25 44.25 112.98 43.37Q113.70 42.50 113.70 42.00Q113.70 41.15 112.35 41.15Q111.05 41.15 109.25 42.17Q107.45 43.20 105.50 44.85Q103.55 46.50 101.90 48.42Q100.25 50.35 99.20 52.15Q98.15 53.95 98.15 55.25Q98.15 56.65 99.90 56.65Q101.75 56.65 104.10 55.60Q106.45 54.55 108.88 52.75Q111.30 50.95 113.30 48.70L113.90 48.05L114.40 48.05L113.95 48.55Q111.80 51.00 109.28 52.90Q106.75 54.80 104.30 55.87Q101.85 56.95 99.80 56.95ZM112.75 56.95Q111.95 56.95 111.53 56.25Q111.10 55.55 111.10 54.30Q111.10 52.60 112.10 50.70Q113.10 48.80 114.80 47.02Q116.50 45.25 118.60 43.80Q120.70 42.35 122.93 41.50Q125.15 40.65 127.15 40.65Q128.85 40.65 128.85 41.95Q128.85 43.15 127.30 45.02Q125.75 46.90 123.40 49.35Q121.55 51.30 119.50 53.02Q117.45 54.75 115.68 55.85Q113.90 56.95 112.75 56.95M112.80 56.60Q113.75 56.60 115.38 55.65Q117 54.70 119 53.00Q121 51.30 123.15 49.10Q125.50 46.65 126.95 44.87Q128.40 43.10 128.40 42.00Q128.40 41.15 127.30 41.15Q126.30 41.15 124.78 41.95Q123.25 42.75 121.53 44.07Q119.80 45.40 118.10 47.00Q116.40 48.60 115 50.25Q113.60 51.90 112.75 53.32Q111.90 54.75 111.90 55.70Q111.90 56.60 112.80 56.60M129.05 48.55Q127.40 50.40 125.90 51.42Q124.40 52.45 123.35 52.45Q121.55 52.45 121.55 50.70Q121.55 49.65 122.08 48.62Q122.60 47.60 123.90 46.10L126.30 46.10L123.25 49.50Q122.50 50.25 122.50 51.25Q122.50 52.15 123.40 52.15Q124.25 52.15 125.60 51.22Q126.95 50.30 128.40 48.70L129 48.05L129.50 48.05L129.05 48.55ZM129.50 48.05L129 48.05L129.60 47.40Q132.40 44.30 134.95 42.42Q137.50 40.55 139 40.55Q139.60 40.55 140 40.95Q140.40 41.35 140.40 42.00Q140.40 43.40 139.22 45.15Q138.05 46.90 135.20 49.85L135.85 49.85L134.55 51.60L130.15 56.50L125.90 56.50Q128.25 54.80 130.70 52.60Q133.15 50.40 135.22 48.20Q137.30 46.00 138.57 44.25Q139.85 42.50 139.85 41.75Q139.85 40.90 138.95 40.90Q138.15 40.90 136.65 41.77Q135.15 42.65 133.43 44.12Q131.70 45.60 130.10 47.40L129.50 48.05M148.65 56.95Q147.90 56.95 147.35 56.32Q146.80 55.70 146.80 54.80Q146.80 53.40 147.85 51.92Q148.90 50.45 150.43 49.00Q151.95 47.55 153.47 46.20Q155 44.85 156.05 43.75Q157.10 42.65 157.10 41.85Q157.10 41.10 156.15 41.10Q155.25 41.10 153.70 42.05Q152.15 43.00 150.25 44.55Q148.35 46.10 146.45 47.95Q144.55 49.80 142.90 51.60L142.40 51.60Q144.05 49.75 146.03 47.85Q148 45.95 149.95 44.35Q151.90 42.75 153.55 41.75Q155.20 40.75 156.25 40.75Q156.95 40.75 157.57 41.25Q158.20 41.75 158.20 42.80Q158.20 44.20 157.13 45.62Q156.05 47.05 154.50 48.45Q152.95 49.85 151.38 51.17Q149.80 52.50 148.72 53.65Q147.65 54.80 147.65 55.70Q147.65 56.65 148.70 56.65Q149.70 56.65 151.53 55.52Q153.35 54.40 155.47 52.60Q157.60 50.80 159.50 48.70L160.05 48.05L160.55 48.05L160.10 48.55Q158.05 50.90 155.82 52.80Q153.60 54.70 151.70 55.82Q149.80 56.95 148.65 56.95M134.55 51.60L134 51.60L137.95 47.40Q140.75 44.35 143.10 42.60Q145.45 40.85 146.95 40.85Q147.50 40.85 147.90 41.22Q148.30 41.60 148.30 42.25Q148.30 43.65 147.25 45.35Q146.20 47.05 143.55 49.85L144.20 49.85L142.90 51.60L138.55 56.50L134.70 56.50Q136.95 54.80 139.25 52.62Q141.55 50.45 143.47 48.30Q145.40 46.15 146.60 44.45Q147.80 42.75 147.80 42.00Q147.80 41.15 146.90 41.15Q146.10 41.15 144.72 42.00Q143.35 42.85 141.72 44.25Q140.10 45.65 138.50 47.40L134.55 51.60ZM160.55 56.65Q162.20 56.65 164.40 55.60Q166.60 54.55 168.95 52.75Q171.30 50.95 173.30 48.70L173.90 48.05L174.40 48.05L173.95 48.55Q171.85 50.90 169.38 52.82Q166.90 54.75 164.58 55.85Q162.25 56.95 160.55 56.95Q159.25 56.95 158.48 56.02Q157.70 55.10 157.70 53.50Q157.70 51.90 158.65 50.15Q159.60 48.40 161.18 46.72Q162.75 45.05 164.73 43.70Q166.70 42.35 168.78 41.55Q170.85 40.75 172.75 40.75Q173.60 40.75 174.10 41.10Q174.60 41.45 174.60 42.00Q174.60 43.05 173.43 44.20Q172.25 45.35 170.40 46.35Q168.55 47.35 166.45 48.00Q164.35 48.65 162.45 48.65L162.90 48.20Q164.70 48.10 166.63 47.50Q168.55 46.90 170.20 45.95Q171.85 45.00 172.90 43.95Q173.95 42.90 173.95 42.00Q173.95 41.20 172.90 41.20Q171.70 41.20 169.93 42.25Q168.15 43.30 166.25 44.95Q164.35 46.60 162.70 48.52Q161.05 50.45 160.03 52.22Q159 54.00 159 55.25Q159 56.65 160.55 56.65Z"/></g></g></svg>