<svg version="1.1" id="Layer_1" xmlns="http://www.w3.org/2000/svg" xmlns:xlink="http://www.w3.org/1999/xlink" x="0px" y="0px"
	 width="100%" viewBox="0 0 1920 1280" enable-background="new 0 0 1920 1280" xml:space="preserve">
<path fill="none" opacity="1.000000" stroke="#000000" stroke-linecap="round" stroke-linejoin="round" stroke-width="4.000000"
	d="
M1017.000000,580.500000 
	C1015.071899,576.289368 1015.857727,571.796692 1016.112244,567.506653 
	C1016.636292,558.672424 1017.065125,549.850098 1017.006775,540.999939 
	C1016.727783,498.684479 1012.019653,456.923004 1000.969360,416.008270 
	C989.416809,373.234009 971.223511,333.394226 945.860596,297.097412 
	C930.669922,275.358154 912.796814,255.723877 892.962463,238.042068 
	C873.824158,220.980759 853.136230,205.966064 830.992615,193.012650 
	C805.979004,178.380310 779.975342,165.756516 752.458374,156.625381 
	C736.008850,151.166840 718.996521,147.702698 701.500549,148.030548 
	C672.148804,148.580536 647.785034,159.650223 629.517883,183.013962 
	C614.368347,202.390198 606.013367,224.849670 600.529541,248.506851 
	C595.194702,271.521423 592.868103,294.885834 591.821289,318.492065 
	C591.028748,336.365417 591.424255,354.192505 592.156921,371.993530 
	C593.099976,394.908356 595.442871,417.762451 598.557373,440.492126 
	C604.489136,483.781311 613.002319,526.599182 623.588867,568.977783 
	C628.741943,589.606079 634.489563,610.103027 640.595703,630.471313 
	C646.830017,651.267578 653.351013,672.004333 660.604553,692.462952 
	C674.004517,730.257446 688.677185,767.566772 705.489014,804.005066 
	C722.291992,840.424194 740.640198,875.996399 761.928589,910.044617 
	C774.015198,929.375549 786.761780,948.192932 800.992065,966.006348 
	C813.838806,982.087708 827.488708,997.409851 842.999023,1011.001099 
	C859.843079,1025.760986 878.065125,1038.483765 899.544861,1045.359741 
	C918.652954,1051.476562 938.038086,1052.415283 957.005188,1044.011719 
	C957.964539,1043.586548 959.136597,1043.535767 959.978210,1042.967773 
	C966.220154,1038.755371 966.140991,1032.636597 959.465088,1027.545776 
	C952.123230,1021.947266 943.999146,1017.620300 935.502441,1013.994324 
	C906.468750,1001.604492 876.431335,992.249634 846.030029,983.890747 
	C836.361694,981.232483 826.719543,978.476440 817.004822,975.981323 
	C815.011169,975.469238 813.105591,974.399902 811.000000,975.500000 
"/>
<path fill="none" opacity="1.000000" stroke="#000000" stroke-linecap="round" stroke-linejoin="round" stroke-width="4.000000"
	d="
M1313.500000,1132.000000 
	C1309.166626,1132.500000 1304.838623,1133.051392 1300.499146,1133.491333 
	C1276.874023,1135.886841 1256.326172,1128.006104 1237.505737,1114.492065 
	C1221.897217,1103.284424 1207.829346,1090.206421 1193.598511,1077.390625 
	C1178.914429,1064.166748 1161.562256,1059.394287 1142.508545,1057.891724 
	C1125.591187,1056.557495 1108.810181,1058.028687 1092.005371,1059.084839 
	C1080.477539,1059.809204 1068.991333,1061.254150 1057.501953,1062.517822 
	C1038.538208,1064.603760 1019.555054,1066.507690 1000.511963,1063.912354 
	C994.573181,1063.102905 988.722290,1061.430054 984.487488,1056.510742 
	C979.727539,1050.981567 977.082031,1041.327148 985.936829,1034.912842 
	C995.390564,1028.064575 1006.208069,1024.415527 1017.046875,1021.155823 
	C1036.058838,1015.437988 1055.491455,1011.198303 1075.011108,1007.559448 
	C1102.406372,1002.452454 1129.933838,998.105591 1157.492798,993.952515 
	C1174.506104,991.388611 1191.647583,989.357849 1208.005127,983.514343 
	C1233.389282,974.446167 1256.319580,961.079651 1277.525513,944.532715 
	C1294.340820,931.411743 1309.894165,917.002014 1324.015015,901.013184 
	C1344.751831,877.533081 1362.741577,852.207947 1377.622803,824.566101 
	C1387.922607,805.434021 1396.543823,785.643738 1402.866455,764.959167 
	C1410.963135,738.471130 1414.472290,711.315674 1412.600586,683.493225 
	C1411.454590,666.456421 1409.655518,649.586975 1405.512085,632.997009 
	C1397.852295,602.328735 1384.199097,575.144287 1360.535400,553.461365 
	C1335.233643,530.277588 1305.004517,518.629150 1271.508423,513.940063 
	C1251.342651,511.117004 1231.221069,511.141785 1210.996216,512.957520 
	C1184.372559,515.347656 1158.524780,521.125916 1132.967163,528.891785 
	C1093.850830,540.777466 1057.133789,557.860352 1022.028381,578.548157 
	C997.546753,592.975342 974.379028,609.320801 952.467773,627.461060 
	C937.446838,639.896790 924.997192,654.746948 912.592773,669.577576 
	C896.398438,688.939453 881.287781,709.179382 867.026123,730.017883 
	C848.844910,756.583435 831.752319,783.823914 818.045715,813.021423 
	C810.166626,829.805237 803.188538,846.918213 800.435913,865.490479 
	C798.618408,877.753418 798.057861,890.307739 805.724182,900.328491 
	C820.257751,919.325562 839.793884,925.246826 863.533875,914.575378 
	C878.651855,907.779480 890.957031,897.401062 901.934021,885.439453 
	C933.384277,851.168701 954.624939,810.723083 972.011597,768.004700 
	C985.404175,735.099792 995.734802,701.289673 1003.092163,666.519470 
	C1006.461548,650.595764 1009.401794,634.628296 1011.485291,618.498108 
	C1012.732483,608.841797 1013.846313,599.168213 1014.986938,589.498474 
	C1015.169189,587.953125 1015.073425,586.404419 1014.250000,585.000000 
"/>
<path fill="none" opacity="1.000000" stroke="#000000" stroke-linecap="round" stroke-linejoin="round" stroke-width="4.000000"
	d="
M652.000000,869.500000 
	C648.280334,862.988831 648.283081,855.565186 647.074768,848.487244 
	C643.821350,829.429138 640.415283,810.487610 631.556763,792.971313 
	C626.186768,782.352844 619.471191,772.796448 610.982422,764.518066 
	C593.956909,747.914368 574.251709,735.674316 551.499207,728.502563 
	C542.464417,725.654724 533.203247,723.917419 524.033875,727.097717 
	C511.933624,731.294556 507.451904,741.540588 509.217407,752.966431 
	C511.420868,767.226501 519.251953,778.232117 533.021851,783.947266 
	C544.468811,788.698364 555.931213,788.074829 566.973572,782.448181 
	C570.395325,780.704712 573.933289,778.093567 573.797913,774.006714 
	C573.666443,770.038391 570.227661,767.772339 566.500000,766.500000 
"/>
<path fill="none" opacity="1.000000" stroke="#000000" stroke-linecap="round" stroke-linejoin="round" stroke-width="4.000000"
	d="
M652.000000,873.000000 
	C653.500000,875.500000 654.800842,878.149231 656.539734,880.470215 
	C660.683105,886.000671 666.533630,888.870361 672.971741,891.082275 
	C680.858887,893.791992 688.890564,895.265198 696.976257,893.397278 
	C712.638000,889.779236 717.720459,875.878906 716.378784,862.512146 
	C715.648560,855.237549 713.092957,848.483704 706.523682,843.965576 
	C699.584839,839.193237 692.326172,840.234497 686.095520,844.151978 
	C667.719360,855.705994 650.714355,869.009949 638.014832,887.010437 
	C633.687805,893.143677 630.696228,899.903992 630.556580,907.501038 
	C630.368958,917.704834 635.845032,924.995667 643.497314,931.003418 
	C655.809082,940.669250 670.303162,945.613464 685.011353,949.961670 
	C710.045654,957.362671 735.766479,961.447693 761.487366,965.578674 
	C774.008484,967.589783 786.645813,968.977295 799.014709,971.938416 
	C800.238037,972.231262 801.666687,971.666626 803.000000,971.499939 
"/>
</svg>