<svg xmlns="http://www.w3.org/2000/svg" version="1.1" xmlns:xlink="http://www.w3.org/1999/xlink" xmlns:svgjs="http://svgjs.dev/svgjs" width="1000" height="1165" viewBox="0 0 1000 1165"><g transform="matrix(1,0,0,1,-0.9174528301887221,0.47165991902829774)"><svg viewBox="0 0 212 247" data-background-color="#000000" preserveAspectRatio="xMidYMid meet" height="1165" width="1000" xmlns="http://www.w3.org/2000/svg" xmlns:xlink="http://www.w3.org/1999/xlink"><g id="tight-bounds" transform="matrix(1,0,0,1,0.194500000000005,-0.09999999999999432)"><svg viewBox="0 0 211.6107365853658 247.2" height="247.2" width="211.6107365853658"><g><svg></svg></g><g><svg viewBox="0 0 211.6107365853658 247.2" height="247.2" width="211.6107365853658"><g transform="matrix(1,0,0,1,0,47.215199999999996)"><svg viewBox="0 0 211.6107365853658 152.7696" height="152.7696" width="211.6107365853658"><g><svg viewBox="0 0 211.6107365853658 152.7696" height="152.7696" width="211.6107365853658"><g><svg viewBox="0 0 211.6107365853658 152.7696" height="152.7696" width="211.6107365853658"><g id="textblocktransform"><svg viewBox="0 0 211.6107365853658 152.7696" height="152.7696" width="211.6107365853658" id="textblock"><g><svg viewBox="0 0 211.6107365853658 152.7696" height="152.7696" width="211.6107365853658"><g transform="matrix(1,0,0,1,0,0)"><svg width="211.6107365853658" viewBox="3.05 -29.35 68.15 49.20000000000001" height="152.7696" data-palette-color="#9b62ca"><path d="M34.5-0.4L34.5-0.4 34.5 0 22.9 0Q22.7-2.75 22.05-5.9L22.05-5.9Q18.55-2.4 15.05 0L15.05 0 3.4 0Q3.05-2.05 3.05-5.43 3.05-8.8 4.05-12.2L4.05-12.2Q7.65-13.25 10.98-15.75 14.3-18.25 15.8-21.15L15.8-21.15Q14.4-23.35 12.95-25L12.95-25 29.55-25Q34.5-14.15 34.5-0.4ZM21.15-9.55L21.15-9.55Q19.9-13.85 17.75-17.95L17.75-17.95Q15.4-11.05 15.05-4.9L15.05-4.9Q18.75-6.9 21.15-9.55ZM68.4-24.05L68.4-24.05Q66.7-23.65 65.55-23.65 64.4-23.65 63.35-23.8L63.35-23.8Q61.8-21.95 60.55-18.85 59.3-15.75 58.67-13.3 58.05-10.85 57.3-7.3L57.3-7.3Q53.5 10.8 49.7 18.4L49.7 18.4Q47.2 19.15 43.5 19.85L43.5 19.85Q48.5 11.3 51.6 0L51.6 0 41.25 0Q37.3-12.8 37.15-25L37.15-25 51.75-25Q50.7-20.35 50.7-15.13 50.7-9.9 52.4-3.2L52.4-3.2Q52.75-4.55 53.6-7.93 54.45-11.3 54.85-12.75 55.25-14.2 56.07-16.85 56.9-19.5 57.57-20.83 58.25-22.15 59.25-23.8L59.25-23.8Q61.05-26.75 64-27.8L64-27.8Q64.85-28.05 67.45-28.33 70.05-28.6 71.2-29.35L71.2-29.35Q69.85-26.25 68.4-24.05Z" opacity="1" transform="matrix(1,0,0,1,0,0)" fill="#9b62ca" class="wordmark-text-0" data-fill-palette-color="primary" id="text-0"></path></svg></g></svg></g></svg></g></svg></g><g></g></svg></g></svg></g><path d="M0 41.215L0 1 211.611 1 211.611 41.215 197.834 41.215 197.834 14.777 13.777 14.777 13.777 41.215 0 41.215M0 205.985L0 246.2 211.611 246.2 211.611 205.985 197.834 205.985 197.834 232.423 13.777 232.423 13.777 205.985 0 205.985" fill="#9b62ca" stroke="transparent" data-fill-palette-color="primary"></path></svg></g><defs></defs></svg><rect width="211.6107365853658" height="247.2" fill="none" stroke="none" visibility="hidden"></rect></g></svg></g></svg>