<svg xmlns="http://www.w3.org/2000/svg" version="1.1" xmlns:xlink="http://www.w3.org/1999/xlink" xmlns:svgjs="http://svgjs.dev/svgjs" width="1000" height="623" viewBox="0 0 1000 623"><g transform="matrix(1,0,0,1,-0.6060606060606233,0.2522267206477409)"><svg viewBox="0 0 396 247" data-background-color="#000000" preserveAspectRatio="xMidYMid meet" height="623" width="1000" xmlns="http://www.w3.org/2000/svg" xmlns:xlink="http://www.w3.org/1999/xlink"><g id="tight-bounds" transform="matrix(1,0,0,1,0.2400000000000091,-0.09999999999999432)"><svg viewBox="0 0 395.52 247.2" height="247.2" width="395.52"><g><svg></svg></g><g><svg viewBox="0 0 395.52 247.2" height="247.2" width="395.52"><g transform="matrix(1,0,0,1,75.54432,49.77428467005076)"><svg viewBox="0 0 244.43135999999998 147.65143065989847" height="147.65143065989847" width="244.43135999999998"><g><svg viewBox="0 0 244.43135999999998 147.65143065989847" height="147.65143065989847" width="244.43135999999998"><g><svg viewBox="0 0 244.43135999999998 147.65143065989847" height="147.65143065989847" width="244.43135999999998"><g><svg viewBox="0 0 244.43135999999998 147.65143065989847" height="147.65143065989847" width="244.43135999999998"><g id="textblocktransform"><svg viewBox="0 0 244.43135999999998 147.65143065989847" height="147.65143065989847" width="244.43135999999998" id="textblock"><g><svg viewBox="0 0 244.43135999999998 147.65143065989847" height="147.65143065989847" width="244.43135999999998"><g transform="matrix(1,0,0,1,0,0)"><svg width="244.43135999999998" viewBox="-2.1 -35.2 59.1 35.7" height="147.65143065989847" data-palette-color="#8c6ba7"><path d="M21.2 0.5Q18.85 0.5 18.3-2.9L18.3-2.9Q17.85-5.65 17.85-12.75L17.85-12.75 16.6-11.8 10.5-11.8Q9.35-8.85 7.83-6.5 6.3-4.15 4.6-3L4.6-3 4.6-2.9Q5.25-2.6 5.85-2.6L5.85-2.6Q6.6-2.6 7.28-2.85 7.95-3.1 8.1-3.1L8.1-3.1Q8.45-3.1 8.45-2.85L8.45-2.85Q8.45-2.5 7.75-1.65L7.75-1.65Q6.95-0.85 6.05-0.43 5.15 0 4.35 0L4.35 0Q3.7 0 2.5-0.4L2.5-0.4Q1.3-0.8 0.7-0.8L0.7-0.8Q-0.05-0.8-0.83-0.4-1.6 0-1.85 0L-1.85 0Q-2.1 0-2.1-0.25L-2.1-0.25Q-2.1-0.75-1.7-1.43-1.3-2.1-0.75-2.35L-0.75-2.35Q-0.45-2.5-0.18-2.55 0.1-2.6 0.5-2.75L0.5-2.75Q2.45-3.5 3.93-5.48 5.4-7.45 6.45-9.93 7.5-12.4 8.85-16.25L8.85-16.25Q10.4-20.6 11.53-23.33 12.65-26.05 14.2-28.38 15.75-30.7 17.75-32L17.75-32 17.75-32.05Q17.05-32.15 16.7-32.25L16.7-32.25Q16.5-32.3 15.48-32.45 14.45-32.6 12.85-32.6L12.85-32.6Q10.15-32.6 8.33-31.6 6.5-30.6 4.9-28.35L4.9-28.35Q4.4-27.55 4.1-27.55L4.1-27.55Q3.8-27.55 3.8-27.95L3.8-27.95 3.85-28.45Q4.6-31.5 7.28-33.35 9.95-35.2 13.5-35.2L13.5-35.2Q14.95-35.2 17.85-34.7L17.85-34.7Q20.55-34.2 21.7-34.2L21.7-34.2Q23-34.2 24.45-34.7L24.45-34.7 24.45-34.65Q23.1-32.4 22.35-27.63 21.6-22.85 21.6-15.8L21.6-15.8Q21.6-8.55 21.9-6L21.9-6Q22-4.55 22.33-3.83 22.65-3.1 23.45-3.1L23.45-3.1Q23.95-3.1 24.43-3.35 24.9-3.6 25.7-4.1L25.7-4.1Q26.65-4.75 26.9-4.75L26.9-4.75Q27.2-4.75 27.2-4.55L27.2-4.55Q27.2-4.15 26.9-3.6L26.9-3.6Q25.95-1.9 24.33-0.7 22.7 0.5 21.2 0.5L21.2 0.5ZM11.4-14.8L17.9-14.8Q18-19.4 18.55-23.93 19.1-28.45 19.95-31.3L19.95-31.3 19.9-31.3Q17.95-30.4 16.13-26.95 14.3-23.5 11.95-16.5L11.95-16.5 11.4-14.8ZM33.5 0Q33.25 0 33.25-0.55L33.25-0.55Q33.25-1 33.47-1.43 33.7-1.85 34.35-2.55L34.35-2.55Q34.7-2.9 35.4-3.5 36.1-4.1 36.45-5.18 36.8-6.25 37.3-8.8L37.3-8.8 38-12.75Q38.3-14.25 38.3-16.5L38.3-16.5Q38.3-19.75 37.72-23.25 37.15-26.75 36.05-29.1 34.95-31.45 33.45-31.45L33.45-31.45Q32-31.45 30.85-29.4L30.85-29.4Q30.55-28.9 30.37-28.65 30.2-28.4 30-28.4L30-28.4Q29.65-28.4 29.65-29.1L29.65-29.1Q29.65-30.6 30.3-32 30.95-33.4 32.07-34.3 33.2-35.2 34.55-35.2L34.55-35.2Q37.8-35.2 39.42-30.38 41.05-25.55 41.55-19.2L41.55-19.2 41.6-19.2Q42.95-23.05 44.97-26.73 47-30.4 49.45-32.8 51.9-35.2 54.25-35.2L54.25-35.2Q55.4-35.2 56.2-34.75 57-34.3 57-33.85L57-33.85Q57-33.5 56.35-32.45 55.7-31.4 54.97-30.48 54.25-29.55 54.15-29.65L54.15-29.65Q53.4-30.45 52.55-30.45L52.55-30.45Q50.45-30.45 48.2-27.68 45.95-24.9 44.22-20.88 42.5-16.85 41.85-13.5L41.85-13.5 40.4-5.5Q40.1-4.2 39.3-3.4L39.3-3.4 39.3-3.35Q39.4-3.3 40.02-3.1 40.65-2.9 41.3-2.9L41.3-2.9Q41.95-2.9 42.57-3.18 43.2-3.45 43.35-3.45L43.35-3.45Q43.65-3.45 43.65-3.15L43.65-3.15Q43.65-2.7 43.05-2.05L43.05-2.05Q41.25 0 39.75 0L39.75 0Q39.3 0 38.1-0.4L38.1-0.4Q36.65-0.85 36.05-0.85L36.05-0.85Q35.15-0.85 34.4-0.43 33.65 0 33.5 0L33.5 0Z" opacity="1" transform="matrix(1,0,0,1,0,0)" fill="#8c6ba7" class="wordmark-text-0" data-fill-palette-color="primary" id="text-0"></path></svg></g></svg></g></svg></g></svg></g></svg></g></svg></g></svg></g><path d="M255.921 43.774L255.921 0.861 10.442 0.861 10.442 246.339 255.921 246.339 255.921 203.426 242.605 203.426 242.605 233.024 23.757 233.024 23.757 14.176 242.605 14.176 242.605 43.774Z" fill="#8c6ba7" stroke="transparent" data-fill-palette-color="primary"></path></svg></g><defs></defs></svg><rect width="395.52" height="247.2" fill="none" stroke="none" visibility="hidden"></rect></g></svg></g></svg>